 <svg  version="1.0" xmlns="http://www.w3.org/2000/svg"  width="828.000000pt" height="612.000000pt" viewBox="0 0 828.000000 612.000000"  preserveAspectRatio="xMidYMid meet">  <g transform="translate(0.000000,612.000000) scale(0.100000,-0.100000)" fill="#ffffff" stroke="none"> <path d="M4146 4761 c-71 -7 -79 -21 -61 -101 41 -178 54 -290 33 -290 -12 0 -38 49 -102 193 -14 31 -30 57 -35 57 -5 0 -31 -18 -59 -39 -62 -49 -127 -147 -148 -220 -23 -82 -34 -109 -50 -115 -16 -6 -94 -14 -506 -52 -205 -19 -282 -23 -297 -15 -25 14 -66 67 -80 104 -12 31 -30 31 -46 1 -6 -10 -23 -38 -38 -61 -24 -37 -27 -53 -27 -122 0 -89 1 -91 92 -91 54 0 78 7 78 25 0 6 8 19 18 28 16 15 71 17 493 19 261 1 480 -2 488 -6 9 -6 11 -22 6 -56 -8 -59 14 -153 49 -208 105 -166 346 -203 495 -75 84 71 126 169 116 267 -5 47 -4 66 6 72 7 4 226 7 487 6 430 -1 476 -3 493 -18 11 -10 19 -23 19 -29 0 -18 24 -25 78 -25 91 0 92 2 92 91 0 69 -3 85 -27 122 -15 23 -32 51 -38 61 -17 33 -32 28 -55 -18 -22 -46 -71 -96 -94 -96 -7 0 -109 9 -227 20 -118 11 -270 25 -339 30 -122 10 -178 17 -211 26 -18 5 -32 34 -49 104 -13 50 -58 136 -93 176 -26 31 -106 94 -119 94 -4 0 -20 -26 -34 -57 -64 -144 -90 -193 -102 -193 -21 0 -10 95 30 274 13 59 14 95 2 106 -12 11 -167 18 -238 11z m176 -560 c42 -18 104 -77 128 -121 7 -12 12 -52 13 -89 1 -114 -65 -205 -171 -235 -54 -15 -63 -15 -112 0 -73 22 -112 54 -149 123 -37 71 -42 141 -12 199 22 43 82 102 126 125 41 22 124 21 177 -2z"/> <path d="M2391 4318 c-29 -5 -49 -14 -45 -18 17 -15 254 -17 254 -1 0 7 -126 33 -147 30 -4 -1 -32 -6 -62 -11z"/> <path d="M3092 4316 c-30 -6 -50 -14 -46 -18 10 -11 254 -10 254 0 0 8 -114 33 -141 31 -8 -1 -38 -6 -67 -13z"/> <path d="M5222 4316 c-30 -6 -50 -14 -46 -18 10 -11 254 -10 254 0 0 8 -114 33 -141 31 -8 -1 -38 -6 -67 -13z"/> <path d="M5931 4318 c-100 -18 -23 -33 154 -30 40 1 65 6 60 11 -9 8 -131 32 -151 30 -5 -1 -33 -6 -63 -11z"/> <path d="M737 2858 c-24 -18 -11 -55 24 -74 l29 -15 0 -190 0 -190 -30 -10 c-25 -9 -30 -16 -30 -44 0 -41 10 -45 105 -45 52 0 76 4 85 15 18 22 4 62 -28 77 l-27 13 -3 177 c-3 192 -6 178 52 226 21 17 21 58 0 66 -29 11 -160 6 -177 -6z"/> <path d="M1135 2860 c-3 -6 -6 -130 -5 -278 0 -220 3 -269 15 -282 13 -13 17 -12 32 3 14 13 17 41 21 144 3 123 10 148 37 140 13 -4 132 -235 139 -269 5 -24 10 -28 41 -28 l35 0 0 285 c0 310 1 305 -55 291 l-25 -6 0 -135 c0 -73 -4 -136 -9 -139 -5 -4 -16 -3 -25 0 -19 7 -136 223 -136 252 0 28 -51 45 -65 22z"/> <path d="M1694 2819 l-54 -52 0 -190 0 -189 44 -43 c38 -36 53 -44 100 -49 61 -8 86 1 145 53 29 24 34 36 35 73 1 43 1 43 -36 46 -32 3 -38 0 -38 -16 0 -11 -9 -31 -21 -46 -28 -35 -95 -37 -127 -3 -21 22 -22 33 -22 179 l0 156 31 26 c51 44 106 27 134 -40 11 -28 19 -34 43 -34 31 0 42 14 42 51 0 11 -23 45 -51 75 -51 54 -52 54 -111 54 -58 0 -61 -1 -114 -51z"/> <path d="M2178 2863 c-12 -3 -18 -14 -18 -34 0 -23 6 -32 27 -40 15 -6 31 -16 35 -22 4 -7 8 -94 8 -194 l0 -182 -32 -9 c-26 -6 -34 -14 -36 -36 -6 -48 12 -58 102 -54 45 1 84 7 88 13 4 5 8 23 8 38 0 22 -6 30 -30 38 l-30 11 0 188 0 189 28 13 c22 11 27 20 27 48 l0 35 -80 2 c-44 0 -88 -1 -97 -4z"/> <path d="M2573 2864 c-20 -9 -18 -537 2 -557 23 -23 181 -21 220 3 43 26 84 72 86 95 1 11 1 98 1 193 l-2 173 -44 47 -45 47 -103 2 c-57 1 -109 0 -115 -3z m188 -84 c40 -22 49 -61 49 -208 0 -134 -1 -140 -25 -166 -19 -21 -33 -26 -69 -26 -80 0 -76 -10 -76 199 0 132 4 191 12 199 15 15 82 16 109 2z"/> <path d="M3087 2863 c-9 -9 -9 -545 1 -559 4 -6 60 -11 143 -13 136 -2 136 -2 142 21 4 13 4 34 0 46 -5 21 -10 22 -104 22 -64 0 -100 4 -105 12 -10 17 -5 120 7 135 6 7 40 13 77 15 l67 3 0 30 0 30 -67 3 c-40 2 -71 8 -78 17 -16 19 -17 129 -1 149 11 13 33 16 107 16 91 0 94 1 100 25 13 52 6 55 -144 55 -76 0 -142 -3 -145 -7z"/> <path d="M3575 2857 c-3 -7 -4 -136 -3 -287 l3 -275 23 -3 c46 -7 52 10 52 154 0 127 1 134 20 134 26 0 67 -68 160 -270 4 -8 18 -15 31 -15 l24 0 3 283 c2 249 0 283 -13 289 -9 3 -25 1 -37 -4 -19 -8 -20 -16 -19 -129 2 -130 -2 -154 -28 -154 -18 0 -141 224 -141 258 0 30 -65 47 -75 19z"/> <path d="M4103 2863 c-14 -5 -17 -31 -7 -57 4 -11 19 -16 44 -16 21 0 47 -8 59 -17 20 -17 21 -28 24 -248 2 -218 3 -230 21 -233 41 -8 46 19 46 255 0 250 -2 243 78 243 27 0 42 5 46 16 11 28 6 52 -10 58 -19 7 -283 7 -301 -1z"/> <path d="M4878 2864 c-17 -5 -18 -27 -18 -278 0 -288 1 -296 47 -296 28 0 32 16 35 130 l3 85 49 3 c89 6 120 -26 117 -120 -2 -66 11 -98 39 -98 28 0 37 26 38 105 1 52 -5 81 -20 113 l-21 44 21 36 c14 26 20 56 21 104 1 59 -3 71 -27 100 -62 74 -59 73 -167 75 -55 1 -108 -1 -117 -3z m190 -90 c12 -8 29 -29 37 -45 20 -37 5 -101 -28 -124 -26 -18 -108 -20 -125 -3 -7 7 -12 43 -12 90 0 63 3 79 18 87 26 16 85 13 110 -5z"/> <path d="M5392 2863 c-9 -4 -12 -67 -12 -279 1 -244 3 -276 17 -281 9 -4 75 -7 147 -7 l131 -1 0 40 0 40 -105 5 -105 5 -2 54 c-3 91 4 100 89 103 l73 3 0 30 0 30 -68 3 c-85 4 -102 23 -95 107 3 30 8 58 12 62 4 5 51 10 104 13 l97 5 3 31 c3 26 -1 33 -20 38 -27 7 -247 7 -266 -1z"/> <path d="M5892 2862 c-14 -10 -20 -538 -6 -552 5 -5 21 -12 37 -15 26 -7 27 -5 29 31 1 22 1 55 0 74 -2 19 0 54 3 78 l6 42 60 0 c70 0 104 15 147 66 29 34 32 43 32 108 0 70 -1 73 -44 121 l-43 50 -104 3 c-57 1 -110 -1 -117 -6z m201 -97 c22 -21 27 -35 27 -71 0 -63 -34 -94 -102 -94 -44 0 -50 3 -59 28 -11 27 -7 131 6 151 3 6 27 11 53 11 37 0 53 -6 75 -25z"/> <path d="M6442 2819 l-53 -54 3 -194 3 -193 48 -44 48 -44 70 4 c66 3 72 5 110 42 l39 38 0 201 0 200 -42 45 c-40 43 -44 45 -108 48 l-66 4 -52 -53z m151 -40 c44 -20 57 -67 57 -207 0 -103 -3 -132 -17 -152 -24 -35 -33 -40 -76 -40 -28 0 -44 7 -62 26 -24 26 -25 32 -25 166 0 104 4 146 15 168 25 47 61 61 108 39z"/> <path d="M6923 2864 c-10 -4 -13 -69 -13 -274 0 -291 2 -300 56 -300 29 0 33 15 36 130 l3 85 54 3 c44 3 58 -1 77 -19 21 -19 24 -32 24 -88 0 -90 7 -111 36 -111 13 0 28 9 34 20 16 30 4 174 -17 210 -16 28 -16 32 -1 58 12 19 18 56 20 111 l2 82 -47 47 -47 47 -103 2 c-56 1 -108 0 -114 -3z m206 -100 c27 -22 31 -32 31 -75 0 -40 -5 -55 -25 -75 -22 -21 -33 -25 -78 -22 l-52 3 -3 83 c-2 53 1 89 9 98 19 24 84 17 118 -12z"/> <path d="M7443 2863 c-14 -5 -17 -31 -7 -57 4 -12 20 -16 54 -16 27 0 52 -5 56 -12 4 -6 6 -107 5 -223 -2 -231 1 -265 29 -265 51 0 50 -4 50 240 0 260 0 260 75 260 40 0 44 2 50 31 5 22 3 34 -6 40 -15 9 -285 11 -306 2z"/> </g> </svg> 