<?xml version="1.0" standalone="no"?>
<!DOCTYPE svg PUBLIC "-//W3C//DTD SVG 20010904//EN"
 "http://www.w3.org/TR/2001/REC-SVG-20010904/DTD/svg10.dtd">
<svg version="1.0" xmlns="http://www.w3.org/2000/svg"
 width="276.000000pt" height="204.000000pt" viewBox="0 0 276.000000 204.000000"
 preserveAspectRatio="xMidYMid meet">
<metadata>
Created by potrace 1.10, written by Peter Selinger 2001-2011
</metadata>
<g transform="translate(0.000000,204.000000) scale(0.100000,-0.100000)"
fill="#000000" stroke="none">
<path d="M528 1885 c-3 -29 -1 -35 15 -35 16 0 17 3 7 15 -7 8 -10 24 -7 35 3
11 2 20 -3 20 -4 0 -10 -16 -12 -35z"/>
<path d="M1835 1900 c4 -12 2 -27 -4 -33 -7 -10 -3 -13 17 -15 17 -1 22 1 15
6 -7 5 -14 20 -15 35 -1 15 -6 27 -11 27 -5 0 -5 -9 -2 -20z"/>
<path d="M1951 1893 c0 -17 -7 -34 -13 -36 -7 -3 1 -6 17 -6 17 0 25 3 18 7
-6 4 -13 21 -16 37 l-4 30 -2 -32z"/>
<path d="M2021 1888 c0 -14 -7 -28 -13 -31 -7 -3 2 -5 19 -4 26 0 30 2 19 11
-8 6 -16 20 -19 31 -4 15 -5 14 -6 -7z"/>
<path d="M933 1588 c33 -7 62 -7 90 0 38 9 33 10 -48 10 -86 0 -88 -1 -42 -10z"/>
<path d="M1071 1582 c-6 -11 -11 -33 -11 -48 0 -23 3 -26 28 -21 20 4 40 -3
80 -30 51 -35 53 -36 67 -17 8 10 15 22 15 26 0 3 -31 19 -70 34 -38 15 -70
30 -70 34 0 3 -6 15 -14 25 -13 18 -14 18 -25 -3z"/>
<path d="M1152 1588 c32 -7 60 -7 85 0 34 9 28 10 -47 10 -81 0 -83 -1 -38
-10z"/>
<path d="M1371 1591 c-11 -7 -11 -18 -1 -62 18 -76 24 -81 30 -26 6 61 24 61
30 0 6 -55 12 -50 30 26 14 61 8 71 -45 71 -16 0 -36 -4 -44 -9z"/>
<path d="M1598 1588 c35 -6 66 -6 90 0 32 9 24 10 -53 10 -88 0 -89 -1 -37
-10z"/>
<path d="M1730 1579 c-9 -20 -31 -34 -81 -54 -61 -23 -89 -45 -59 -45 6 0 10
-7 10 -15 0 -22 9 -19 66 19 37 25 57 33 77 29 24 -5 27 -2 27 24 0 16 -6 38
-14 48 -14 19 -15 19 -26 -6z"/>
<path d="M1802 1588 c24 -6 55 -6 90 0 52 9 51 10 -37 10 -77 0 -85 -1 -53
-10z"/>
<path d="M1298 1523 c-15 -16 -30 -44 -35 -63 -11 -41 -24 -45 -185 -56 l-107
-7 -12 27 c-7 14 -15 26 -18 26 -11 0 -31 -54 -31 -82 0 -24 4 -28 28 -28 15
0 32 4 38 10 5 5 81 10 169 11 l160 1 -3 -29 c-4 -40 35 -95 76 -107 75 -21
157 37 150 107 l-3 29 160 -1 c88 -1 164 -6 169 -11 6 -6 23 -10 38 -10 24 0
28 4 28 28 0 27 -20 82 -30 82 -3 0 -12 -13 -21 -28 l-16 -28 -127 12 c-70 7
-134 15 -141 17 -7 3 -15 21 -19 39 -6 31 -60 98 -70 87 -5 -5 -36 -97 -36
-106 0 -3 9 6 21 21 11 14 25 26 30 26 9 0 49 -72 49 -90 0 -19 -53 -10 -86
15 -43 33 -81 32 -124 -4 -27 -22 -40 -26 -57 -20 -28 10 -28 10 -3 59 23 46
33 49 54 18 9 -12 17 -20 20 -17 6 6 -26 99 -34 99 -3 0 -18 -12 -32 -27z
m167 -138 c43 -42 24 -111 -34 -130 -22 -7 -59 9 -78 34 -33 43 7 121 62 121
14 0 37 -11 50 -25z"/>
<path d="M696 1441 c-7 -10 107 -18 177 -13 26 2 44 8 41 13 -7 12 -211 12
-218 0z"/>
<path d="M965 1440 c-4 -6 32 -10 102 -10 73 0 103 3 93 10 -20 13 -187 13
-195 0z"/>
<path d="M1670 1440 c-10 -7 20 -10 93 -10 70 0 106 4 102 10 -8 13 -175 13
-195 0z"/>
<path d="M1916 1441 c-8 -12 68 -18 157 -13 44 3 64 8 56 13 -18 12 -206 12
-213 0z"/>
<path d="M2659 1373 c-1 -5 0 -19 1 -32 1 -13 -4 -28 -12 -32 -10 -7 -9 -9 5
-9 13 0 17 9 17 40 0 22 -2 40 -5 40 -3 0 -5 -3 -6 -7z"/>
<path d="M1222 1342 c-15 -2 -22 -9 -18 -18 3 -8 1 -14 -4 -14 -6 0 -10 5 -10
11 0 8 -5 8 -15 -1 -9 -7 -15 -29 -15 -54 0 -29 -6 -47 -20 -59 -11 -9 -20
-27 -20 -40 0 -13 9 -32 20 -42 20 -18 20 -17 20 19 0 33 3 37 23 34 19 -3 21
-8 19 -38 -4 -35 -4 -35 17 -16 27 24 27 61 1 83 -29 25 -26 74 7 107 29 29
28 33 -5 28z"/>
<path d="M1580 1343 c0 -5 11 -20 25 -33 31 -29 34 -79 5 -105 -22 -20 -26
-55 -8 -73 20 -20 29 -14 26 16 -2 21 2 28 20 30 19 3 22 -1 22 -34 0 -36 0
-37 20 -19 11 10 20 29 20 42 0 13 -9 31 -20 40 -14 12 -20 30 -20 59 0 28 -6
46 -20 59 -11 10 -20 13 -20 7 0 -7 -5 -12 -11 -12 -5 0 -7 6 -3 13 4 6 4 9
-1 5 -4 -4 -14 -3 -22 3 -7 6 -13 7 -13 2z"/>
<path d="M240 945 c0 -8 5 -15 10 -15 6 0 10 -28 10 -65 0 -37 -4 -65 -10 -65
-5 0 -10 -9 -10 -20 0 -17 7 -20 40 -20 33 0 40 3 40 20 0 11 -7 20 -15 20
-12 0 -15 14 -15 65 0 51 3 65 15 65 8 0 15 7 15 15 0 11 -11 15 -40 15 -29 0
-40 -4 -40 -15z"/>
<path d="M375 862 c0 -79 3 -97 15 -97 12 0 14 12 12 53 -1 28 1 52 6 52 5 0
20 -25 33 -55 37 -84 49 -73 49 45 0 91 -2 100 -19 100 -16 0 -17 -6 -13 -50
2 -27 0 -50 -5 -50 -5 0 -17 23 -28 50 -12 30 -26 50 -35 50 -12 0 -15 -17
-15 -98z"/>
<path d="M498 850 c-2 -61 0 -110 5 -110 4 0 7 50 7 110 0 61 -2 110 -4 110
-3 0 -6 -50 -8 -110z"/>
<path d="M562 948 c-7 -7 -12 -41 -12 -83 0 -77 15 -105 57 -105 23 0 53 30
53 53 0 21 -26 22 -34 2 -3 -8 -15 -15 -26 -15 -18 0 -20 6 -20 60 0 48 4 62
17 67 11 4 22 -1 31 -15 8 -12 18 -22 23 -22 13 0 11 44 -3 58 -16 16 -70 16
-86 0z"/>
<path d="M720 945 c0 -8 4 -15 9 -15 5 0 11 -29 13 -65 2 -47 0 -65 -9 -65 -7
0 -13 -9 -13 -20 0 -16 7 -20 34 -20 25 0 35 5 39 20 3 13 0 20 -9 20 -21 0
-20 126 1 134 29 11 15 26 -25 26 -29 0 -40 -4 -40 -15z"/>
<path d="M850 860 l0 -99 38 1 c60 1 82 29 82 103 0 75 -16 95 -78 95 l-42 0
0 -100z m84 48 c2 -13 3 -41 3 -63 -2 -35 -5 -40 -27 -43 -25 -3 -25 -2 -23
60 1 35 2 64 3 66 0 1 9 2 20 2 12 0 21 -8 24 -22z"/>
<path d="M1028 860 l3 -100 50 0 c42 0 49 3 49 20 0 16 -7 20 -35 20 -31 0
-35 3 -35 25 0 21 5 25 31 25 38 0 35 24 -4 28 -21 3 -27 9 -27 28 0 21 5 24
35 24 24 0 35 5 35 15 0 11 -13 15 -52 15 l-53 0 3 -100z"/>
<path d="M1190 859 c0 -89 2 -100 17 -97 14 2 17 13 14 56 -1 28 0 52 3 52 9
0 46 -77 46 -95 0 -10 7 -15 16 -13 12 2 16 21 17 101 2 89 0 97 -17 97 -17 0
-18 -6 -13 -50 3 -27 2 -50 -2 -50 -9 0 -47 81 -43 92 1 5 -7 8 -18 8 -19 0
-20 -7 -20 -101z"/>
<path d="M1320 860 c0 -95 -1 -101 -22 -110 -22 -8 -22 -9 5 -9 l27 -1 0 110
c0 61 -2 110 -5 110 -3 0 -5 -45 -5 -100z"/>
<path d="M1360 945 c0 -9 9 -15 25 -15 l24 0 -6 -85 c-6 -83 -5 -85 16 -85 22
0 23 3 20 83 -3 78 -3 82 19 85 12 2 22 10 22 18 0 11 -15 14 -60 14 -47 0
-60 -3 -60 -15z"/>
<path d="M1620 860 c0 -82 3 -100 15 -100 11 0 15 11 15 40 0 33 3 40 19 40
25 0 36 -18 32 -53 -2 -23 1 -28 16 -25 22 4 30 52 12 74 -9 11 -9 18 -1 26
18 18 14 63 -6 81 -11 10 -36 17 -60 17 l-42 0 0 -100z m84 55 c9 -25 -4 -45
-30 -45 -20 0 -24 5 -24 30 0 25 4 30 24 30 13 0 26 -7 30 -15z"/>
<path d="M1790 860 l0 -100 55 0 c48 0 55 2 55 20 0 17 -7 20 -39 20 -35 0
-38 2 -33 25 3 20 10 25 34 25 19 0 28 4 25 13 -2 6 -16 12 -30 12 -23 -1 -27
3 -27 27 0 25 3 28 35 28 24 0 35 5 35 15 0 12 -13 15 -55 15 l-55 0 0 -100z"/>
<path d="M1960 870 c0 -49 0 -93 -1 -97 0 -5 7 -9 15 -11 12 -3 16 6 16 37 0
36 3 41 23 41 32 0 57 30 57 66 0 41 -16 54 -67 54 l-43 0 0 -90z m75 30 c0
-18 -6 -26 -22 -28 -20 -3 -23 1 -23 28 0 27 3 31 23 28 16 -2 22 -10 22 -28z"/>
<path d="M2147 942 c-25 -27 -24 -143 1 -165 25 -23 55 -21 77 3 24 27 29 137
7 163 -20 22 -64 22 -85 -1z m64 -19 c1 -5 2 -33 2 -63 2 -52 1 -55 -23 -55
-22 0 -25 5 -28 39 -5 57 5 86 28 86 11 0 20 -3 21 -7z"/>
<path d="M2300 860 c0 -93 1 -100 20 -100 17 0 20 7 20 41 0 36 2 40 23 37 18
-2 23 -10 25 -40 2 -25 8 -38 18 -38 17 0 20 70 3 87 -8 8 -8 13 0 17 17 11
13 61 -7 79 -11 10 -36 17 -60 17 l-42 0 0 -100z m85 40 c0 -18 -6 -26 -22
-28 -20 -3 -23 1 -23 28 0 27 3 31 23 28 16 -2 22 -10 22 -28z"/>
<path d="M2472 948 c3 -7 14 -14 26 -16 21 -3 22 -9 22 -88 0 -68 3 -84 15
-84 12 0 15 16 15 85 0 78 2 85 20 85 11 0 20 7 20 15 0 12 -13 15 -61 15 -44
0 -60 -3 -57 -12z"/>
<path d="M982 855 c-2 -71 -12 -92 -53 -108 -11 -4 -11 -6 1 -6 8 0 25 8 38
19 21 17 23 26 19 92 l-3 73 -2 -70z"/>
<path d="M330 771 c0 -16 -8 -21 -42 -24 l-43 -4 48 -1 c44 -2 47 0 47 23 0
14 -2 25 -5 25 -3 0 -5 -9 -5 -19z"/>
<path d="M1140 771 c0 -15 -8 -21 -32 -24 -32 -4 -32 -4 5 -5 33 -2 37 0 37
23 0 14 -2 25 -5 25 -3 0 -5 -9 -5 -19z"/>
</g>
</svg>
